<svg width="60" height="60" viewBox="0 0 60 60" fill="none" xmlns="http://www.w3.org/2000/svg">
<path d="M30 60C46.5685 60 60 46.5685 60 30C60 13.4315 46.5685 0 30 0C13.4315 0 0 13.4315 0 30C0 46.5685 13.4315 60 30 60Z" fill="#2D68C4"/>
<path fill-rule="evenodd" clip-rule="evenodd" d="M32.25 24.1875L39 20.25V28.125L32.25 24.1875ZM39 41.0625L30 46.3125L21 41.0625V31.875L30 37.125L39 31.875V41.0625ZM21 20.25L27.75 24.1875L21 28.125V20.25ZM31.125 26.0625L37.875 30L31.125 33.9375V26.0625ZM28.875 33.9375L22.125 30L28.875 26.0625V33.9375ZM37.875 18.375L30 22.875L22.125 18.375L30 13.6875L37.875 18.375ZM18.75 17.625V42.1875L30 48.5625L41.25 42.1875V17.625L30 11.25L18.75 17.625Z" fill="white"/>
</svg>
